<?xml version="1.0" encoding="utf-8"?>
<!-- Generator: Adobe Illustrator 16.0.0, SVG Export Plug-In . SVG Version: 6.00 Build 0)  -->
<!DOCTYPE svg PUBLIC "-//W3C//DTD SVG 1.1//EN" "http://www.w3.org/Graphics/SVG/1.1/DTD/svg11.dtd">
<svg version="1.1" id="Layer_1" xmlns="http://www.w3.org/2000/svg" xmlns:xlink="http://www.w3.org/1999/xlink" x="0px" y="0px"
	 width="26.104px" height="36.709px" viewBox="248.318 59.561 26.104 36.709" enable-background="new 248.318 59.561 26.104 36.709"
	 xml:space="preserve">
<g>
	<path fill="#F5902A" d="M254.333,96.271c-6.929-3.282-7.952-10.909-2.649-19.673c0.26-0.427,1.992,0.588,2.297,0.344
		c7.207-5.898,5.865-8.765,2.463-16.169c-0.139-0.311-0.105-0.761-0.158-1.156c8.925-0.618,12.398,3.86,13.558,17.475
		c1.962,0.212,2.351-3.307,4.323-3.274c0.703,5.727,0.322,11.274-5.783,15.917c-0.094-6.288-4.826-11.712-10.345-11.773
		c-0.751,2.566,2.885,4.44,0.286,6.469C253.279,88.358,254.768,92.246,254.333,96.271z"/>
	<path fill="#FCDD2D" d="M254.333,96.271c0.435-4.022-1.052-7.912,3.99-11.835c2.597-2.03-1.04-3.907-0.286-6.469
		c5.518,0.059,10.25,5.482,10.345,11.774C264.191,95.925,258.932,93.403,254.333,96.271z"/>
</g>
<g id="Layer_2">
</g>
<g id="Layer_3">
</g>
</svg>
