<?xml version="1.0" encoding="utf-8"?>
<!-- Generator: Adobe Illustrator 16.0.0, SVG Export Plug-In . SVG Version: 6.00 Build 0)  -->
<!DOCTYPE svg PUBLIC "-//W3C//DTD SVG 1.1//EN" "http://www.w3.org/Graphics/SVG/1.1/DTD/svg11.dtd">
<svg version="1.1" id="Layer_1" xmlns="http://www.w3.org/2000/svg" xmlns:xlink="http://www.w3.org/1999/xlink" x="0px" y="0px"
	 width="264.634px" height="119.516px" viewBox="10.55 12.422 264.634 119.516"
	 enable-background="new 10.55 12.422 264.634 119.516" xml:space="preserve">
<g id="Layer_1_1_">
	<g>
		<path fill="#F5902A" d="M258.901,102.286c-5.619-4.482-6.447-10.935-2.15-16.642c0.213-0.278,1.615,1.006,1.863,0.885
			c5.838-2.885,4.754-5.557,1.996-12.457c-0.115-0.288-0.086-0.644-0.131-0.979c7.238,1.852,10.051,6.395,10.992,17.736
			c1.59,0.686,1.906-2.062,3.502-1.517c0.574,4.826,0.264,9.222-4.691,11.377c-0.07-5.119-3.91-10.767-8.379-12.267
			c-0.607,1.881,2.34,4.361,0.232,5.318C258.045,95.598,259.25,99.139,258.901,102.286z"/>
		<path fill="#FCDD2D" d="M258.901,102.286c0.35-3.146-0.854-6.688,3.234-8.541c2.105-0.959-0.844-3.438-0.232-5.318
			c4.469,1.5,8.309,7.146,8.379,12.266C266.885,104.605,262.627,101.174,258.901,102.286z"/>
	</g>
</g>
<g id="Layer_2">
</g>
<g id="Layer_3">
</g>
<path fill="#C82027" d="M123.803,92.233c-1.245,2.931-3.487,5.219-6.729,6.861c-3.243,1.645-6.908,2.465-10.992,2.465
	c-3.464,0-6.662-0.556-9.593-1.666c-2.931-1.109-5.463-2.708-7.595-4.796c-2.132-2.086-3.797-4.573-4.996-7.462
	c-1.199-2.885-1.799-6.149-1.799-9.793V35.339H99.42v39.972c0,8.174,3.685,12.258,11.059,12.258c3.997,0,7.216-1.153,9.66-3.464
	c2.442-2.31,3.664-5.24,3.664-8.794V35.339h17.321v67.286c0,4.617-0.778,8.748-2.332,12.391c-1.555,3.642-3.687,6.706-6.396,9.193
	c-2.71,2.486-5.908,4.397-9.593,5.73c-3.687,1.332-7.618,1.998-11.792,1.998c-9.683,0-16.922-2.444-21.718-7.328
	c-4.797-4.887-7.195-11.592-7.195-20.119h16.122c0,3.908,1.132,6.973,3.397,9.193c2.265,2.219,5.663,3.331,10.193,3.331
	c1.599,0,3.108-0.333,4.53-0.999c1.419-0.666,2.686-1.6,3.797-2.799c1.109-1.199,1.999-2.688,2.665-4.463
	c0.666-1.778,0.999-3.73,0.999-5.863V92.233z"/>
<path fill="#C82027" d="M148.985,100.893V35.339h16.256V43.2c1.42-2.219,2.908-3.951,4.463-5.196
	c1.554-1.243,3.152-2.198,4.797-2.865c1.643-0.666,3.309-1.086,4.997-1.266c1.686-0.177,3.418-0.267,5.196-0.267h2.265v17.721
	c-1.599-0.267-3.197-0.4-4.797-0.4c-10.571,0-15.855,5.286-15.855,15.855v34.109H148.985z"/>
<path fill="#C82027" d="M203.614,72.647c0.267,4.975,1.71,8.926,4.331,11.857c2.618,2.932,6.063,4.396,10.326,4.396
	c2.841,0,5.35-0.643,7.527-1.932c2.176-1.286,3.575-3.085,4.197-5.396h17.854c-2.045,6.752-5.597,11.948-10.659,15.59
	c-5.063,3.643-11.105,5.463-18.121,5.463c-21.852,0-32.776-11.902-32.776-35.709c0-5.063,0.71-9.637,2.132-13.723
	c1.419-4.084,3.484-7.595,6.195-10.526c2.708-2.931,6.017-5.173,9.926-6.729c3.908-1.553,8.395-2.332,13.458-2.332
	c10.126,0,17.787,3.244,22.983,9.727c5.196,6.485,7.795,16.255,7.795,29.313H203.614z M230.928,61.721
	c-0.09-2.398-0.512-4.508-1.266-6.33c-0.756-1.819-1.755-3.331-2.998-4.53c-1.245-1.199-2.665-2.086-4.264-2.665
	c-1.599-0.577-3.243-0.866-4.93-0.866c-3.464,0-6.462,1.266-8.994,3.797c-2.531,2.532-3.976,6.063-4.33,10.593H230.928z"/>
<path fill="#C82027" d="M75.971,29.876c-1.333-3.464-3.244-6.506-5.729-9.127c-2.488-2.619-5.463-4.664-8.927-6.129
	c-3.464-1.466-7.374-2.199-11.725-2.199H10.55v101l9-15.589l9.521,16.49V68.782h20.519c4.351,0,8.261-0.687,11.725-2.064
	c3.464-1.377,6.439-3.285,8.927-5.729c2.486-2.442,4.397-5.373,5.729-8.794c1.332-3.418,1.999-7.128,1.999-11.125
	C77.97,37.071,77.303,33.341,75.971,29.876z M58.184,50.062c-2.354,2.444-6.196,3.664-11.525,3.664H29.071V27.745h17.587
	c5.33,0,9.171,1.199,11.525,3.597c2.353,2.398,3.531,5.463,3.531,9.194C61.714,44.445,60.536,47.62,58.184,50.062z"/>
</svg>
