<?xml version="1.0" encoding="utf-8"?>
<!-- Generator: Adobe Illustrator 16.0.0, SVG Export Plug-In . SVG Version: 6.00 Build 0)  -->
<!DOCTYPE svg PUBLIC "-//W3C//DTD SVG 1.1//EN" "http://www.w3.org/Graphics/SVG/1.1/DTD/svg11.dtd">
<svg version="1.1" id="Layer_1" xmlns="http://www.w3.org/2000/svg" xmlns:xlink="http://www.w3.org/1999/xlink" x="0px" y="0px"
	 width="264.634px" height="119.515px" viewBox="10.55 12.421 264.634 119.515"
	 enable-background="new 10.55 12.421 264.634 119.515" xml:space="preserve">
<g id="Layer_1_1_">
	<g>
		<path fill="#F5902A" d="M258.9,102.286c-5.618-4.482-6.446-10.937-2.149-16.644c0.213-0.276,1.615,1.006,1.863,0.885
			c5.838-2.885,4.754-5.557,1.995-12.455c-0.114-0.288-0.086-0.646-0.131-0.979c7.238,1.852,10.051,6.396,10.992,17.736
			c1.59,0.686,1.906-2.063,3.502-1.519c0.574,4.826,0.264,9.224-4.69,11.377c-0.07-5.119-3.91-10.767-8.38-12.267
			c-0.606,1.881,2.341,4.361,0.232,5.318C258.045,95.598,259.25,99.139,258.9,102.286z"/>
		<path fill="#FCDD2D" d="M258.9,102.286c0.351-3.146-0.854-6.688,3.234-8.541c2.105-0.959-0.844-3.438-0.232-5.318
			c4.47,1.5,8.31,7.146,8.38,12.266C266.885,104.605,262.627,101.174,258.9,102.286z"/>
	</g>
</g>
<g id="Layer_2">
</g>
<g id="Layer_3">
</g>
<path fill="#FFFFFF" d="M123.803,92.233c-1.245,2.933-3.487,5.221-6.729,6.861c-3.243,1.646-6.908,2.465-10.992,2.465
	c-3.464,0-6.662-0.556-9.593-1.666c-2.931-1.107-5.463-2.708-7.595-4.796c-2.132-2.086-3.797-4.573-4.996-7.462
	c-1.199-2.885-1.799-6.149-1.799-9.793V35.339H99.42v39.972c0,8.174,3.685,12.258,11.059,12.258c3.997,0,7.216-1.151,9.66-3.464
	c2.442-2.31,3.664-5.238,3.664-8.794V35.339h17.32v67.286c0,4.617-0.777,8.748-2.332,12.391c-1.555,3.644-3.688,6.706-6.396,9.193
	c-2.71,2.484-5.908,4.396-9.593,5.729c-3.687,1.332-7.618,1.998-11.792,1.998c-9.683,0-16.922-2.442-21.718-7.328
	c-4.797-4.887-7.195-11.592-7.195-20.117H98.22c0,3.906,1.132,6.973,3.397,9.191c2.265,2.219,5.663,3.331,10.193,3.331
	c1.599,0,3.108-0.333,4.53-0.999c1.419-0.666,2.686-1.6,3.797-2.799c1.109-1.199,1.999-2.688,2.665-4.463
	c0.666-1.778,0.999-3.73,0.999-5.863V92.233H123.803z"/>
<path fill="#FFFFFF" d="M148.984,100.893V35.339h16.257V43.2c1.42-2.221,2.907-3.951,4.463-5.196
	c1.555-1.243,3.151-2.198,4.797-2.865c1.644-0.666,3.31-1.086,4.998-1.266c1.687-0.179,3.418-0.269,5.194-0.269h2.267v17.723
	c-1.601-0.269-3.196-0.4-4.797-0.4c-10.572,0-15.854,5.286-15.854,15.855v34.107h-17.322v0.003H148.984z"/>
<path fill="#FFFFFF" d="M203.613,72.647c0.269,4.977,1.712,8.928,4.332,11.857c2.617,2.932,6.063,4.396,10.326,4.396
	c2.84,0,5.351-0.643,7.525-1.932c2.178-1.286,3.576-3.085,4.197-5.396h17.854c-2.045,6.752-5.597,11.946-10.658,15.59
	c-5.063,3.643-11.105,5.463-18.121,5.463c-21.853,0-32.775-11.902-32.775-35.709c0-5.063,0.709-9.639,2.131-13.725
	c1.42-4.084,3.484-7.595,6.195-10.524c2.709-2.933,6.018-5.173,9.926-6.729c3.908-1.553,8.396-2.332,13.459-2.332
	c10.125,0,17.787,3.244,22.982,9.729c5.195,6.483,7.795,16.255,7.795,29.313H203.613L203.613,72.647z M230.928,61.721
	c-0.09-2.396-0.512-4.508-1.266-6.33c-0.758-1.817-1.756-3.331-2.998-4.53c-1.246-1.197-2.666-2.086-4.266-2.665
	c-1.599-0.575-3.242-0.864-4.93-0.864c-3.464,0-6.462,1.266-8.994,3.797c-2.531,2.532-3.976,6.063-4.33,10.593H230.928
	L230.928,61.721z"/>
<path fill="#FFFFFF" d="M75.971,29.876c-1.333-3.464-3.244-6.506-5.729-9.127c-2.488-2.619-5.463-4.664-8.927-6.129
	c-3.464-1.468-7.374-2.199-11.725-2.199H10.55v101l9-15.589l9.521,16.49v-45.54H49.59c4.351,0,8.261-0.688,11.725-2.064
	s6.439-3.285,8.927-5.729c2.486-2.442,4.397-5.373,5.729-8.796c1.332-3.418,1.999-7.128,1.999-11.125
	C77.97,37.071,77.303,33.341,75.971,29.876z M58.184,50.062c-2.354,2.444-6.196,3.664-11.525,3.664H29.071V27.746h17.587
	c5.33,0,9.171,1.197,11.525,3.597c2.353,2.398,3.531,5.463,3.531,9.194C61.714,44.445,60.536,47.62,58.184,50.062z"/>
</svg>
