<?xml version="1.0" encoding="utf-8"?>
<!-- Generator: Adobe Illustrator 16.0.0, SVG Export Plug-In . SVG Version: 6.00 Build 0)  -->
<!DOCTYPE svg PUBLIC "-//W3C//DTD SVG 1.1//EN" "http://www.w3.org/Graphics/SVG/1.1/DTD/svg11.dtd">
<svg version="1.1" id="Layer_1" xmlns="http://www.w3.org/2000/svg" xmlns:xlink="http://www.w3.org/1999/xlink" x="0px" y="0px"
	 width="45.83px" height="76.73px" viewBox="1.819 6.145 45.83 76.73" enable-background="new 1.819 6.145 45.83 76.73"
	 xml:space="preserve">
<g id="Layer_1_1_">
</g>
<g>
	<path fill="#F5902A" d="M32.832,80.875c-3.783-1.793-4.343-5.959-1.447-10.743c0.141-0.233,1.089,0.321,1.255,0.188
		c3.935-3.221,3.202-4.786,1.344-8.831c-0.076-0.169-0.058-0.416-0.086-0.63c4.873-0.337,6.771,2.108,7.404,9.543
		c1.071,0.115,1.283-1.806,2.36-1.789c0.384,3.127,0.177,6.157-3.158,8.693c-0.05-3.435-2.636-6.395-5.649-6.431
		c-0.41,1.402,1.575,2.426,0.156,3.533C32.255,76.554,33.069,78.677,32.832,80.875z"/>
	<path fill="#FCDD2D" d="M32.832,80.875c0.236-2.198-0.574-4.322,2.179-6.463c1.418-1.109-0.567-2.133-0.156-3.533
		c3.013,0.033,5.598,2.995,5.649,6.43C38.216,80.687,35.343,79.309,32.832,80.875z"/>
</g>
<g id="Layer_3">
</g>
<g>
	<path fill="#C90000" d="M46.383,7.938v34.137l-28.679,28.48v10.32H2.819V7.938H46.383z M17.705,22.922v26.992L31.499,36.22V22.922
		H17.705z"/>
</g>
</svg>
