<?xml version="1.0" encoding="utf-8"?>
<!-- Generator: Adobe Illustrator 16.0.0, SVG Export Plug-In . SVG Version: 6.00 Build 0)  -->
<!DOCTYPE svg PUBLIC "-//W3C//DTD SVG 1.1//EN" "http://www.w3.org/Graphics/SVG/1.1/DTD/svg11.dtd">
<svg version="1.1" id="Layer_1" xmlns="http://www.w3.org/2000/svg" xmlns:xlink="http://www.w3.org/1999/xlink" x="0px" y="0px"
	 width="258.12px" height="78.857px" viewBox="14.305 29.422 258.12 78.857" enable-background="new 14.305 29.422 258.12 78.857"
	 xml:space="preserve">
<g>
	<path fill="#F5902A" d="M250.104,107.279c-6.662-3.156-7.646-10.49-2.548-18.917c0.25-0.413,1.916,0.564,2.209,0.33
		c6.931-5.672,5.64-8.429,2.368-15.548c-0.133-0.301-0.1-0.731-0.15-1.112c8.582-0.594,11.921,3.713,13.038,16.805
		c1.888,0.205,2.262-3.181,4.156-3.147c0.676,5.508,0.31,10.841-5.561,15.306c-0.091-6.047-4.64-11.262-9.948-11.32
		c-0.722,2.467,2.774,4.269,0.275,6.222C249.092,99.67,250.522,103.408,250.104,107.279z"/>
	<path fill="#FCDD2D" d="M250.104,107.279c0.418-3.868-1.012-7.608,3.837-11.381c2.497-1.952-1-3.757-0.275-6.221
		c5.306,0.057,9.856,5.271,9.948,11.321C259.584,106.946,254.526,104.521,250.104,107.279z"/>
</g>
<g id="Layer_2">
</g>
<g id="Layer_3">
</g>
<g>
	<path fill="#C90000" d="M66.508,31.45v35.49L36.692,96.55v10.729H21.217V31.45H66.508z M36.692,47.029v28.062l14.34-14.237V47.029
		H36.692z"/>
	<path fill="#C90000" d="M106.125,31.45h15.579v75.829H80.436V91.701h25.689v-1.033L76.309,61.575V31.45h15.579v23.833
		l14.237,14.133V31.45z"/>
	<path fill="#C90000" d="M178.961,107.279h-15.579l-6.086-19.809l-9.183,9.079v10.729h-15.476V31.45h45.291v35.49l-8.666,8.666
		L178.961,107.279z M148.113,47.029v28.062l14.341-14.237V47.029H148.113z"/>
	<path fill="#C90000" d="M235.082,58.48L205.268,88.09v3.611h14.339v-6.604h15.476v22.182h-45.29V31.45h45.29V58.48z
		 M205.268,47.029v19.602l14.339-14.237v-5.365H205.268z"/>
</g>
</svg>
