<?xml version="1.0" encoding="utf-8"?>
<!-- Generator: Adobe Illustrator 16.0.0, SVG Export Plug-In . SVG Version: 6.00 Build 0)  -->
<!DOCTYPE svg PUBLIC "-//W3C//DTD SVG 1.1//EN" "http://www.w3.org/Graphics/SVG/1.1/DTD/svg11.dtd">
<svg version="1.1" id="Layer_1" xmlns="http://www.w3.org/2000/svg" xmlns:xlink="http://www.w3.org/1999/xlink" x="0px" y="0px"
	 width="67.419px" height="101.901px" viewBox="-5 19 67.419 101.901" enable-background="new -5 19 67.419 101.901"
	 xml:space="preserve">
<g id="Layer_1_1_">
</g>
<g id="Layer_2">
	<path fill="#C82027" d="M60.421,36.455c-1.332-3.464-3.244-6.506-5.729-9.127c-2.487-2.619-5.463-4.664-8.927-6.129
		C42.3,19.733,38.39,19,34.039,19H-5v100.999l9-15.588l9.521,16.49V75.361h20.519c4.351,0,8.261-0.688,11.726-2.064
		c3.464-1.377,6.439-3.285,8.927-5.73c2.485-2.441,4.397-5.373,5.729-8.793c1.332-3.419,1.998-7.128,1.998-11.126
		C62.419,43.65,61.753,39.919,60.421,36.455z M42.634,56.64c-2.355,2.445-6.196,3.664-11.525,3.664H13.521V34.323h17.588
		c5.329,0,9.17,1.199,11.525,3.597c2.352,2.398,3.53,5.463,3.53,9.194C46.164,51.024,44.985,54.198,42.634,56.64z"/>
	<g>
		<path fill="#F5902A" d="M46.137,120.564c-5.618-4.483-6.446-10.936-2.15-16.643c0.211-0.277,1.615,1.006,1.863,0.885
			c5.839-2.885,4.754-5.557,1.996-12.457c-0.114-0.288-0.088-0.644-0.131-0.979c7.236,1.851,10.051,6.394,10.99,17.735
			c1.59,0.686,1.906-2.062,3.504-1.517c0.572,4.826,0.264,9.223-4.69,11.377c-0.072-5.119-3.911-10.766-8.38-12.266
			c-0.608,1.881,2.34,4.36,0.23,5.318C45.282,113.875,46.486,117.416,46.137,120.564z"/>
		<path fill="#FCDD2D" d="M46.137,120.564c0.35-3.147-0.854-6.688,3.232-8.542c2.107-0.958-0.841-3.438-0.23-5.318
			c4.469,1.5,8.308,7.146,8.38,12.266C54.123,122.882,49.863,119.452,46.137,120.564z"/>
	</g>
</g>
<g id="Layer_3">
</g>
</svg>
