<?xml version="1.0" encoding="utf-8"?>
<!-- Generator: Adobe Illustrator 16.0.0, SVG Export Plug-In . SVG Version: 6.00 Build 0)  -->
<!DOCTYPE svg PUBLIC "-//W3C//DTD SVG 1.1//EN" "http://www.w3.org/Graphics/SVG/1.1/DTD/svg11.dtd">
<svg version="1.1" id="Layer_1" xmlns="http://www.w3.org/2000/svg" xmlns:xlink="http://www.w3.org/1999/xlink" x="0px" y="0px"
	 width="59.347px" height="85.977px" viewBox="0 29.384 59.347 85.977" enable-background="new 0 29.384 59.347 85.977"
	 xml:space="preserve">
<g id="Layer_1_1_">
</g>
<g>
	<path fill="#F5902A" d="M44.508,84.281c-5.117-2.425-5.873-8.058-1.957-14.53c0.191-0.316,1.471,0.435,1.697,0.254
		c5.322-4.357,4.332-6.473,1.818-11.942c-0.102-0.229-0.078-0.563-0.117-0.855c6.592-0.456,9.158,2.852,10.014,12.907
		c1.449,0.156,1.736-2.442,3.193-2.419c0.52,4.229,0.238,8.327-4.271,11.757c-0.07-4.645-3.566-8.65-7.641-8.697
		c-0.555,1.896,2.131,3.281,0.211,4.778C43.729,78.438,44.829,81.31,44.508,84.281z"/>
	<path fill="#FCDD2D" d="M44.508,84.281c0.32-2.972-0.777-5.844,2.947-8.741c1.918-1.5-0.768-2.885-0.211-4.779
		c4.074,0.045,7.57,4.051,7.641,8.697C51.79,84.027,47.905,82.163,44.508,84.281z"/>
</g>
<path fill="#C90000" d="M37.619,65.414c0,1.744-0.61,3.422-1.829,5.035c-1.22,1.617-2.7,2.705-4.441,3.273L12.54,79.832v31.453
	L0,115.362V39.914L31.349,29.73c1.741-0.566,3.221-0.437,4.441,0.385c1.219,0.824,1.829,2.107,1.829,3.846V65.414z M12.54,67.293
	l12.539-4.074V44.41L12.54,48.484V67.293z"/>
<path fill="#C90000" d="M36.266,86.034l-19.427,6.26v-9.713l19.427-6.313V86.034z"/>
<g id="Layer_3">
</g>
</svg>
